<svg width="20" height="20" viewBox="0 0 20 20" fill="none" xmlns="http://www.w3.org/2000/svg">
<path d="M13.8719 14.126L15.0719 12.926L11.0053 8.85931L8.2636 11.601C7.9386 11.926 7.4136 11.926 7.0886 11.601L2.0886 6.59264C1.7636 6.26764 1.7636 5.74264 2.0886 5.41764C2.4136 5.09264 2.9386 5.09264 3.2636 5.41764L7.67193 9.83431L10.4136 7.09264C10.7386 6.76764 11.2636 6.76764 11.5886 7.09264L16.2469 11.7426L17.4469 10.5426C17.7053 10.2843 18.1553 10.4676 18.1553 10.8343V14.4093C18.1553 14.6426 17.9719 14.826 17.7386 14.826H14.1636C13.7969 14.8343 13.6136 14.3843 13.8719 14.126Z" fill="#1AC057"/>
</svg>
