<svg width="30" height="30" viewBox="0 0 30 30" fill="none" xmlns="http://www.w3.org/2000/svg">
<path d="M23.325 8.33329C23.325 7.41663 22.5833 6.66663 21.6666 6.66663H8.33329C7.41663 6.66663 6.66663 7.41663 6.66663 8.33329V18.3333C6.66663 19.25 7.41663 20 8.33329 20H20L23.3333 23.3333L23.325 8.33329ZM19.1666 16.6666H10.8333C10.375 16.6666 9.99996 16.2916 9.99996 15.8333C9.99996 15.375 10.375 15 10.8333 15H19.1666C19.625 15 20 15.375 20 15.8333C20 16.2916 19.625 16.6666 19.1666 16.6666ZM19.1666 14.1666H10.8333C10.375 14.1666 9.99996 13.7916 9.99996 13.3333C9.99996 12.875 10.375 12.5 10.8333 12.5H19.1666C19.625 12.5 20 12.875 20 13.3333C20 13.7916 19.625 14.1666 19.1666 14.1666ZM19.1666 11.6666H10.8333C10.375 11.6666 9.99996 11.2916 9.99996 10.8333C9.99996 10.375 10.375 9.99996 10.8333 9.99996H19.1666C19.625 9.99996 20 10.375 20 10.8333C20 11.2916 19.625 11.6666 19.1666 11.6666Z" fill="#131D35" fill-opacity="0.54"/>
</svg>
