<svg width="20" height="20" viewBox="0 0 20 20" fill="none" xmlns="http://www.w3.org/2000/svg">
    <path d="M12.9167 16.6667H4.58332V5.83333C4.58332 5.375 4.20832 5 3.74999 5C3.29166 5 2.91666 5.375 2.91666 5.83333V16.6667C2.91666 17.5833 3.66666 18.3333 4.58332 18.3333H12.9167C13.375 18.3333 13.75 17.9583 13.75 17.5C13.75 17.0417 13.375 16.6667 12.9167 16.6667ZM17.0833 13.3333V3.33333C17.0833 2.41667 16.3333 1.66667 15.4167 1.66667H7.91666C6.99999 1.66667 6.24999 2.41667 6.24999 3.33333V13.3333C6.24999 14.25 6.99999 15 7.91666 15H15.4167C16.3333 15 17.0833 14.25 17.0833 13.3333ZM15.4167 13.3333H7.91666V3.33333H15.4167V13.3333Z"
          fill="#fff"/>
</svg>
