<svg width="20" height="20" viewBox="0 0 20 20" fill="none" xmlns="http://www.w3.org/2000/svg">
<g id="draw on map">
<g id="Vector">
<path d="M14.8926 8.06946L11.4509 7.72446C11.3324 7.71038 11.2032 7.71731 11.0764 7.75851L10.5612 7.92589L9.40241 4.35943C9.04704 3.26572 7.87098 2.66648 6.77726 3.02185C5.68355 3.37722 5.08431 4.55329 5.43968 5.647L7.53842 12.1063L5.95335 12.2708C5.79504 12.2959 5.10633 12.4146 4.72645 13.1601L3.97998 14.6381L9.37432 17.433C9.76542 17.6389 10.2237 17.674 10.6437 17.5375L15.8349 15.8508C16.6116 15.5984 17.0892 14.8299 16.9662 14.0199L16.2945 9.47154C16.1919 8.75133 15.6217 8.18304 14.8926 8.06946ZM15.3199 14.2657L10.1287 15.9524L6.22289 13.9094L9.757 13.5409L7.02477 5.13197C6.95267 4.91006 7.07038 4.67905 7.29229 4.60694C7.5142 4.53484 7.74522 4.65255 7.81732 4.87446L9.40876 9.7724L10.8036 9.31918L14.6482 9.71731L15.3199 14.2657Z" fill="#1A1A1A" fill-opacity="0.87"/>
<path fill-rule="evenodd" clip-rule="evenodd" d="M16.3184 7.75114C15.6545 6.60118 14.7109 5.63755 13.5751 4.94969C12.4393 4.26182 11.1481 3.87199 9.8214 3.81639L9.87514 2.53418C10.1538 2.54586 10.431 2.57021 10.7062 2.607C11.9542 2.77388 13.1577 3.19658 14.2399 3.85197C15.322 4.50735 16.2542 5.37802 16.9803 6.40676C17.1404 6.63352 17.2904 6.86797 17.4298 7.10947L16.3184 7.75114Z" fill="#1A1A1A" fill-opacity="0.87"/>
</g>
</g>
</svg>
