<svg width="20" height="20" viewBox="0 0 24 24" fill="none" xmlns="http://www.w3.org/2000/svg">
<path d="M7.50004 6.16663C7.27903 6.16663 7.06707 6.25443 6.91079 6.41071C6.7545 6.56699 6.66671 6.77895 6.66671 6.99997C6.66671 7.22098 6.7545 7.43294 6.91079 7.58922C7.06707 7.7455 7.27903 7.8333 7.50004 7.8333C7.72105 7.8333 7.93302 7.7455 8.0893 7.58922C8.24558 7.43294 8.33337 7.22098 8.33337 6.99997C8.33337 6.77895 8.24558 6.56699 8.0893 6.41071C7.93302 6.25443 7.72105 6.16663 7.50004 6.16663ZM5.14171 6.16663C5.31388 5.67869 5.63316 5.25616 6.05554 4.95729C6.47792 4.65842 6.98261 4.49792 7.50004 4.49792C8.01747 4.49792 8.52216 4.65842 8.94454 4.95729C9.36692 5.25616 9.68621 5.67869 9.85837 6.16663H15.8334C16.0544 6.16663 16.2663 6.25443 16.4226 6.41071C16.5789 6.56699 16.6667 6.77895 16.6667 6.99997C16.6667 7.22098 16.5789 7.43294 16.4226 7.58922C16.2663 7.7455 16.0544 7.8333 15.8334 7.8333H9.85837C9.68621 8.32124 9.36692 8.74377 8.94454 9.04264C8.52216 9.34151 8.01747 9.50201 7.50004 9.50201C6.98261 9.50201 6.47792 9.34151 6.05554 9.04264C5.63316 8.74377 5.31388 8.32124 5.14171 7.8333H4.16671C3.94569 7.8333 3.73373 7.7455 3.57745 7.58922C3.42117 7.43294 3.33337 7.22098 3.33337 6.99997C3.33337 6.77895 3.42117 6.56699 3.57745 6.41071C3.73373 6.25443 3.94569 6.16663 4.16671 6.16663H5.14171ZM12.5 11.1666C12.279 11.1666 12.0671 11.2544 11.9108 11.4107C11.7545 11.567 11.6667 11.779 11.6667 12C11.6667 12.221 11.7545 12.4329 11.9108 12.5892C12.0671 12.7455 12.279 12.8333 12.5 12.8333C12.7211 12.8333 12.933 12.7455 13.0893 12.5892C13.2456 12.4329 13.3334 12.221 13.3334 12C13.3334 11.779 13.2456 11.567 13.0893 11.4107C12.933 11.2544 12.7211 11.1666 12.5 11.1666ZM10.1417 11.1666C10.3139 10.6787 10.6332 10.2562 11.0555 9.95729C11.4779 9.65842 11.9826 9.49792 12.5 9.49792C13.0175 9.49792 13.5222 9.65842 13.9445 9.95729C14.3669 10.2562 14.6862 10.6787 14.8584 11.1666H15.8334C16.0544 11.1666 16.2663 11.2544 16.4226 11.4107C16.5789 11.567 16.6667 11.779 16.6667 12C16.6667 12.221 16.5789 12.4329 16.4226 12.5892C16.2663 12.7455 16.0544 12.8333 15.8334 12.8333H14.8584C14.6862 13.3212 14.3669 13.7438 13.9445 14.0426C13.5222 14.3415 13.0175 14.502 12.5 14.502C11.9826 14.502 11.4779 14.3415 11.0555 14.0426C10.6332 13.7438 10.3139 13.3212 10.1417 12.8333H4.16671C3.94569 12.8333 3.73373 12.7455 3.57745 12.5892C3.42117 12.4329 3.33337 12.221 3.33337 12C3.33337 11.779 3.42117 11.567 3.57745 11.4107C3.73373 11.2544 3.94569 11.1666 4.16671 11.1666H10.1417ZM7.50004 16.1666C7.27903 16.1666 7.06707 16.2544 6.91079 16.4107C6.7545 16.567 6.66671 16.779 6.66671 17C6.66671 17.221 6.7545 17.4329 6.91079 17.5892C7.06707 17.7455 7.27903 17.8333 7.50004 17.8333C7.72105 17.8333 7.93302 17.7455 8.0893 17.5892C8.24558 17.4329 8.33337 17.221 8.33337 17C8.33337 16.779 8.24558 16.567 8.0893 16.4107C7.93302 16.2544 7.72105 16.1666 7.50004 16.1666ZM5.14171 16.1666C5.31388 15.6787 5.63316 15.2562 6.05554 14.9573C6.47792 14.6584 6.98261 14.4979 7.50004 14.4979C8.01747 14.4979 8.52216 14.6584 8.94454 14.9573C9.36692 15.2562 9.68621 15.6787 9.85837 16.1666H15.8334C16.0544 16.1666 16.2663 16.2544 16.4226 16.4107C16.5789 16.567 16.6667 16.779 16.6667 17C16.6667 17.221 16.5789 17.4329 16.4226 17.5892C16.2663 17.7455 16.0544 17.8333 15.8334 17.8333H9.85837C9.68621 18.3212 9.36692 18.7438 8.94454 19.0426C8.52216 19.3415 8.01747 19.502 7.50004 19.502C6.98261 19.502 6.47792 19.3415 6.05554 19.0426C5.63316 18.7438 5.31388 18.3212 5.14171 17.8333H4.16671C3.94569 17.8333 3.73373 17.7455 3.57745 17.5892C3.42117 17.4329 3.33337 17.221 3.33337 17C3.33337 16.779 3.42117 16.567 3.57745 16.4107C3.73373 16.2544 3.94569 16.1666 4.16671 16.1666H5.14171Z" fill="#3479E8" fill-opacity="1"/>
</svg>
