<svg width="20" height="20" viewBox="0 0 20 20" fill="none" xmlns="http://www.w3.org/2000/svg">
<path d="M10 1.80103C6.5 1.80103 3.33334 4.48436 3.33334 8.63436C3.33334 11.2844 5.375 14.401 9.45 17.9927C9.76667 18.2677 10.2417 18.2677 10.5583 17.9927C14.625 14.401 16.6667 11.2844 16.6667 8.63436C16.6667 4.48436 13.5 1.80103 10 1.80103ZM10 10.1344C9.08334 10.1344 8.33334 9.38436 8.33334 8.46769C8.33334 7.55102 9.08334 6.80102 10 6.80102C10.9167 6.80102 11.6667 7.55102 11.6667 8.46769C11.6667 9.38436 10.9167 10.1344 10 10.1344Z" fill="#3479E8"/>
</svg>
