<svg width="85" height="40" viewBox="0 0 85 40" fill="none" xmlns="http://www.w3.org/2000/svg">
<path d="M64.0356 12H68.8274C70.9455 12 72.9768 12.8253 74.4745 14.2945C75.9723 15.7636 76.8137 17.7563 76.8137 19.834C76.8137 21.9116 75.9723 23.9044 74.4745 25.3734C72.9768 26.8427 70.9455 27.668 68.8274 27.668H64.0356V24.5344H68.8274C71.4738 24.5344 73.6192 22.43 73.6192 19.834C73.6192 17.238 71.4738 15.1336 68.8274 15.1336H64.0356V12Z" fill="white"/>
<path fill-rule="evenodd" clip-rule="evenodd" d="M45.1488 22.1628C45.3453 21.4844 45.4436 20.7811 45.4436 20.0528C45.4436 19.3245 45.3453 18.6211 45.1488 17.9428C44.9595 17.2645 44.6902 16.6326 44.3408 16.047C43.9914 15.4615 43.5692 14.926 43.0742 14.4405C42.5792 13.9549 42.0333 13.5408 41.4364 13.198C40.8395 12.8553 40.1953 12.5911 39.5038 12.4055C38.8123 12.2127 38.0953 12.1163 37.3528 12.1163C36.6103 12.1163 35.8933 12.2127 35.2018 12.4055C34.5175 12.5911 33.8733 12.8553 33.2692 13.198C32.6723 13.5408 32.1263 13.9549 31.6313 14.4405C31.1363 14.926 30.7105 15.4615 30.3538 16.047C30.0044 16.6326 29.7315 17.2645 29.5349 17.9428C29.3457 18.6211 29.251 19.3245 29.251 20.0528C29.251 20.7811 29.3457 21.4844 29.5349 22.1628C29.7315 22.834 30.0044 23.4659 30.3538 24.0585C30.7105 24.644 31.1363 25.1796 31.6313 25.6651C32.1263 26.1506 32.6723 26.5684 33.2692 26.9182C33.8733 27.261 34.5175 27.5252 35.2018 27.7108C35.8933 27.9036 36.6103 28 37.3528 28C38.0953 28 38.8123 27.9036 39.5038 27.7108C40.1953 27.5252 40.8395 27.261 41.4364 26.9182C42.0333 26.5684 42.5792 26.1506 43.0742 25.6651C43.5692 25.1796 43.9914 24.644 44.3408 24.0585C44.6902 23.4659 44.9595 22.834 45.1488 22.1628ZM41.9387 18.157C42.2007 18.7497 42.3317 19.3816 42.3317 20.0528C42.3317 20.724 42.2007 21.3559 41.9387 21.9486C41.6766 22.5341 41.3199 23.0482 40.8686 23.4909C40.4246 23.9336 39.8969 24.2834 39.2854 24.5405C38.6812 24.7976 38.037 24.9261 37.3528 24.9261C36.6613 24.9261 36.0134 24.7976 35.4092 24.5405C34.8051 24.2834 34.2773 23.9336 33.826 23.4909C33.3747 23.0482 33.018 22.5341 32.756 21.9486C32.4939 21.3559 32.3629 20.724 32.3629 20.0528C32.3629 19.3816 32.4939 18.7497 32.756 18.157C33.018 17.5572 33.3747 17.0396 33.826 16.604C34.2773 16.1613 34.8051 15.8114 35.4092 15.5544C36.0134 15.2973 36.6613 15.1688 37.3528 15.1688C38.037 15.1688 38.6812 15.2973 39.2854 15.5544C39.8969 15.8114 40.4246 16.1613 40.8686 16.604C41.3199 17.0396 41.6766 17.5572 41.9387 18.157Z" fill="white"/>
<path fill-rule="evenodd" clip-rule="evenodd" d="M3.13369 27.668H0V12.3091H6.26739C6.84244 12.3091 7.39566 12.384 7.92704 12.534C8.45842 12.6768 8.95341 12.8839 9.412 13.1552C9.87787 13.4194 10.3001 13.7407 10.6786 14.1192C11.0644 14.4905 11.3919 14.9046 11.6613 15.3616C11.9379 15.8186 12.149 16.3077 12.2946 16.8289C12.4474 17.3502 12.5239 17.8928 12.5239 18.4569C12.5239 18.9853 12.4547 19.4994 12.3164 19.9992C12.1854 20.4991 11.9925 20.9739 11.7377 21.4237C11.4902 21.8736 11.1845 22.2877 10.8205 22.6662C10.4566 23.0446 10.0489 23.3731 9.59762 23.6515L11.3337 27.668H8.00347L6.63862 24.5726L3.13369 24.5941V27.668ZM3.13369 15.383V21.5308H6.26739C6.69686 21.5308 7.10085 21.4523 7.47937 21.2952C7.85789 21.131 8.18909 20.9096 8.47298 20.6312C8.75687 20.3527 8.97889 20.0278 9.13903 19.6565C9.30645 19.2781 9.39016 18.8782 9.39016 18.4569C9.39016 18.0356 9.30645 17.6393 9.13903 17.2681C8.97889 16.8896 8.75687 16.5612 8.47298 16.2827C8.18909 16.0042 7.85789 15.7864 7.47937 15.6293C7.10085 15.4651 6.69686 15.383 6.26739 15.383H3.13369Z" fill="white"/>
<path d="M17.7592 27.668H14.6255V12.3091H17.7592V18.4569H24.0157V12.3091H27.1494V27.668H24.0157V21.5308H17.7592V27.668Z" fill="white"/>
<path fill-rule="evenodd" clip-rule="evenodd" d="M62.8862 20.0528C62.8862 20.7811 62.7879 21.4844 62.5914 22.1628C62.4021 22.834 62.1328 23.4659 61.7834 24.0585C61.434 24.644 61.0118 25.1796 60.5168 25.6651C60.0218 26.1506 59.4759 26.5684 58.879 26.9182C58.2821 27.261 57.6379 27.5252 56.9464 27.7108C56.2548 27.9036 55.5378 28 54.7953 28C54.0529 28 53.3359 27.9036 52.6443 27.7108C51.9601 27.5252 51.3159 27.261 50.7117 26.9182C50.1148 26.5684 49.5689 26.1506 49.0739 25.6651C48.5789 25.1796 48.1531 24.644 47.7964 24.0585C47.447 23.4659 47.174 22.834 46.9775 22.1628C46.7882 21.4844 46.6936 20.7811 46.6936 20.0528C46.6936 19.3245 46.7882 18.6211 46.9775 17.9428C47.174 17.2645 47.447 16.6326 47.7964 16.047C48.1531 15.4615 48.5789 14.926 49.0739 14.4405C49.5689 13.9549 50.1148 13.5408 50.7117 13.198C51.3159 12.8553 51.9601 12.5911 52.6443 12.4055C53.3359 12.2127 54.0529 12.1163 54.7953 12.1163C55.5378 12.1163 56.2548 12.2127 56.9464 12.4055C57.6379 12.5911 58.2821 12.8553 58.879 13.198C59.4759 13.5408 60.0218 13.9549 60.5168 14.4405C61.0118 14.926 61.434 15.4615 61.7834 16.047C62.1328 16.6326 62.4021 17.2645 62.5914 17.9428C62.7879 18.6211 62.8862 19.3245 62.8862 20.0528ZM59.7743 20.0528C59.7743 19.3816 59.6433 18.7497 59.3812 18.157C59.1192 17.5572 58.7625 17.0396 58.3112 16.604C57.8672 16.1613 57.3394 15.8114 56.728 15.5544C56.1238 15.2973 55.4796 15.1688 54.7953 15.1688C54.1038 15.1688 53.456 15.2973 52.8518 15.5544C52.2476 15.8114 51.7199 16.1613 51.2686 16.604C50.8173 17.0396 50.4606 17.5572 50.1985 18.157C49.9365 18.7497 49.8055 19.3816 49.8055 20.0528C49.8055 20.724 49.9365 21.3559 50.1985 21.9486C50.4606 22.5341 50.8173 23.0482 51.2686 23.4909C51.7199 23.9336 52.2476 24.2834 52.8518 24.5405C53.456 24.7976 54.1038 24.9261 54.7953 24.9261C55.4796 24.9261 56.1238 24.7976 56.728 24.5405C57.3394 24.2834 57.8672 23.9336 58.3112 23.4909C58.7625 23.0482 59.1192 22.5341 59.3812 21.9486C59.6433 21.3559 59.7743 20.724 59.7743 20.0528Z" fill="white"/>
<path d="M81.3372 14.2645C80.8479 13.5445 79.8562 13.3499 79.1222 13.8299C78.3882 14.3099 78.1899 15.2827 78.6792 16.0027L81.2831 19.834L78.6792 23.6653C78.1899 24.3853 78.3882 25.358 79.1222 25.838C79.8562 26.318 80.8479 26.1235 81.3372 25.4035L84.5317 20.7031C84.8894 20.1768 84.8894 19.4912 84.5317 18.9649L81.3372 14.2645Z" fill="white"/>
</svg>
