<svg width="40" height="40" viewBox="0 0 40 40" fill="none" xmlns="http://www.w3.org/2000/svg">
<path fill-rule="evenodd" clip-rule="evenodd" d="M11.375 19.1353C16.7437 16.7962 20.3237 15.2541 22.1149 14.5091C27.2293 12.3819 28.292 12.0123 28.9847 12.0001C29.137 11.9974 29.4777 12.0352 29.6983 12.2142C29.8846 12.3654 29.9359 12.5696 29.9604 12.713C29.985 12.8563 30.0155 13.1828 29.9912 13.438C29.7141 16.35 28.5149 23.4168 27.9048 26.6783C27.6466 28.0584 27.1383 28.5211 26.6462 28.5664C25.5767 28.6648 24.7646 27.8596 23.7288 27.1806C22.1079 26.1181 21.1922 25.4567 19.6189 24.4199C17.8007 23.2217 18.9794 22.5631 20.0156 21.4869C20.2868 21.2052 24.9988 16.9192 25.09 16.5304C25.1014 16.4818 25.112 16.3005 25.0043 16.2048C24.8967 16.1091 24.7377 16.1418 24.623 16.1679C24.4605 16.2048 21.8711 17.9162 16.855 21.3023C16.12 21.807 15.4543 22.0529 14.8578 22.04C14.2003 22.0258 12.9354 21.6682 11.9951 21.3625C10.8418 20.9876 9.92515 20.7894 10.005 20.1527C10.0465 19.8211 10.5032 19.4819 11.375 19.1353Z" fill="white"/>
</svg>
