<svg width="24" height="24" viewBox="0 0 24 24" fill="none" xmlns="http://www.w3.org/2000/svg">
<path d="M20 6.25757C20 6.80757 19.55 7.25757 19 7.25757H18V8.25757C18 8.80757 17.55 9.25757 17 9.25757C16.45 9.25757 16 8.80757 16 8.25757V7.25757H15C14.45 7.25757 14 6.80757 14 6.25757C14 5.70757 14.45 5.25757 15 5.25757H16V4.25757C16 3.70757 16.45 3.25757 17 3.25757C17.55 3.25757 18 3.70757 18 4.25757V5.25757H19C19.55 5.25757 20 5.70757 20 6.25757ZM18 19.7376C18 20.4576 17.27 20.9376 16.61 20.6576L11 18.2576L5.39 20.6576C4.73 20.9476 4 20.4576 4 19.7376V5.25757C4 4.15757 4.9 3.25757 6 3.25757H13C12.37 4.09757 12 5.12757 12 6.25757C12 9.01757 14.24 11.2576 17 11.2576C17.34 11.2576 17.68 11.2276 18 11.1576V19.7376Z" fill="white"/>
</svg>
