<?xml version="1.0" encoding="utf-8"?>
<svg viewBox="0 0 48 48" width="48px" height="48px" xmlns="http://www.w3.org/2000/svg">
  <path d="M 6.065 11.508 L 11.424 21.086 L 11.424 26.929 L 6.071 36.486 L 6.065 11.508 Z" fill="#5b57a2" style=""/>
  <path d="M 26.639 17.6 L 31.66 14.523 L 41.935 14.513 L 26.639 23.884 L 26.639 17.6 Z" fill="#d90751" style=""/>
  <path d="M 26.61 11.451 L 26.639 24.131 L 21.268 20.832 L 21.268 1.876 L 26.611 11.451 L 26.61 11.451 Z" fill="#fab718" style=""/>
  <path d="M 41.935 14.513 L 31.659 14.523 L 26.61 11.451 L 21.268 1.876 L 41.935 14.513 Z" fill="#ed6f26" style=""/>
  <path d="M 26.639 36.54 L 26.639 30.388 L 21.268 27.151 L 21.271 46.124 L 26.639 36.54 Z" fill="#63b22f" style=""/>
  <path d="M 31.647 33.491 L 11.423 21.086 L 6.065 11.508 L 41.913 33.478 L 31.647 33.491 Z" fill="#1487c9" style=""/>
  <path d="M 21.271 46.124 L 26.638 36.54 L 31.647 33.491 L 41.912 33.478 L 21.271 46.124 Z" fill="#017f36" style=""/>
  <path d="M 6.071 36.486 L 21.312 27.152 L 16.188 24.007 L 11.424 26.929 L 6.071 36.486 Z" fill="#984995" style=""/>
</svg>