<svg width="20" height="20" viewBox="0 0 20 20" fill="none" xmlns="http://www.w3.org/2000/svg">
<path d="M15.8333 10.8333H4.16667C3.25 10.8333 2.5 11.5833 2.5 12.5V15.8333C2.5 16.75 3.25 17.5 4.16667 17.5H15.8333C16.75 17.5 17.5 16.75 17.5 15.8333V12.5C17.5 11.5833 16.75 10.8333 15.8333 10.8333ZM15.8333 15.8333H4.16667V12.5H15.8333V15.8333Z" fill="#1A1A1A" fill-opacity="0.87"/>
<path d="M15.8333 2.5H4.16667C3.25 2.5 2.5 3.25 2.5 4.16667V7.5C2.5 8.41667 3.25 9.16667 4.16667 9.16667H15.8333C16.75 9.16667 17.5 8.41667 17.5 7.5V4.16667C17.5 3.25 16.75 2.5 15.8333 2.5ZM15.8333 7.5H4.16667V4.16667H15.8333V7.5Z" fill="#1A1A1A" fill-opacity="0.87"/>
</svg>
