<svg width="24" height="24" viewBox="0 0 24 24" fill="none" xmlns="http://www.w3.org/2000/svg">
<path d="M12 5.49384L19.53 18.5038H4.47L12 5.49384ZM2.74 17.5038C1.97 18.8338 2.93 20.5038 4.47 20.5038H19.53C21.07 20.5038 22.03 18.8338 21.26 17.5038L13.73 4.49384C12.96 3.16384 11.04 3.16384 10.27 4.49384L2.74 17.5038ZM11 10.5038V12.5038C11 13.0538 11.45 13.5038 12 13.5038C12.55 13.5038 13 13.0538 13 12.5038V10.5038C13 9.95384 12.55 9.50384 12 9.50384C11.45 9.50384 11 9.95384 11 10.5038ZM11 15.5038H13V17.5038H11V15.5038Z" fill="gray" fill-opacity="0.87"/>
</svg>
