<svg width="20" height="20" viewBox="0 0 20 20" fill="none" xmlns="http://www.w3.org/2000/svg">
<path d="M13.8717 5.87813L15.0717 7.07813L11.005 11.1448L8.26336 8.40313C7.93835 8.07813 7.41336 8.07813 7.08836 8.40313L2.08835 13.4115C1.76335 13.7365 1.76335 14.2615 2.08835 14.5865C2.41335 14.9115 2.93835 14.9115 3.26335 14.5865L7.67169 10.1698L10.4134 12.9115C10.7384 13.2365 11.2634 13.2365 11.5884 12.9115L16.2467 8.26147L17.4467 9.46147C17.705 9.7198 18.155 9.53647 18.155 9.1698V5.58647C18.1634 5.35313 17.98 5.1698 17.7467 5.1698H14.1717C13.7967 5.1698 13.6134 5.6198 13.8717 5.87813Z" fill="#EE4343"/>
</svg>
