<svg width="33" height="33" viewBox="0 0 33 33" fill="none" xmlns="http://www.w3.org/2000/svg">
<g clip-path="url(#clip0_4454_18115)">
<circle cx="16.4004" cy="14.1333" r="4" fill="white"/>
<path d="M25.6682 23.2233L25.6735 23.2178L25.6788 23.2122C27.9364 20.8035 29.1687 17.6111 29.1152 14.3102C29.0617 11.0094 27.7265 7.85871 25.392 5.52446C23.0073 3.13976 19.773 1.80005 16.4005 1.80005C13.028 1.80005 9.79368 3.13976 7.40898 5.52446C5.02428 7.90916 3.68457 11.1435 3.68457 14.516C3.68457 17.8884 5.02428 21.1228 7.40898 23.5075L7.40906 23.5076L12.9337 29.031L12.9451 29.0423L12.9568 29.0533L13.1443 29.229L13.1567 29.2406L13.1694 29.2518C14.1057 30.0717 15.3187 30.505 16.5625 30.4641C17.8064 30.4231 18.9881 29.9108 19.8684 29.0311L19.8686 29.031L25.3919 23.5089L25.398 23.5028L25.4039 23.4967L25.6682 23.2233ZM15.2887 11.8318C15.6412 11.6858 16.019 11.6107 16.4005 11.6107C17.171 11.6107 17.91 11.9168 18.4548 12.4616C18.9997 13.0065 19.3058 13.7454 19.3058 14.516C19.3058 15.2865 18.9997 16.0255 18.4548 16.5703C17.91 17.1152 17.171 17.4213 16.4005 17.4213C16.019 17.4213 15.6412 17.3461 15.2887 17.2001C14.9362 17.0541 14.6159 16.8401 14.3461 16.5703C14.0764 16.3005 13.8624 15.9803 13.7164 15.6278C13.5704 15.2753 13.4952 14.8975 13.4952 14.516C13.4952 14.1344 13.5704 13.7567 13.7164 13.4042C13.8624 13.0517 14.0764 12.7314 14.3461 12.4616C14.6159 12.1918 14.9362 11.9778 15.2887 11.8318Z" fill="#3479E8" stroke="white" stroke-width="2"/>
</g>
<defs>
<clipPath id="clip0_4454_18115">
<rect width="32" height="32" fill="white" transform="translate(0.400391 0.133301)"/>
</clipPath>
</defs>
</svg>
