<svg width="41" height="41" viewBox="0 0 48 48" fill="none" xmlns="http://www.w3.org/2000/svg">
<rect width="48" height="48" rx="24" fill="#6366F2"/>
<path fill-rule="evenodd" clip-rule="evenodd" d="M14.6842 34H10.6667V14H18.7018C19.439 14 20.1483 14.0976 20.8296 14.2929C21.5108 14.4788 22.1454 14.7485 22.7333 15.1018C23.3306 15.4458 23.8719 15.8642 24.3572 16.357C24.8518 16.8405 25.2717 17.3798 25.617 17.9749C25.9717 18.57 26.2423 19.2069 26.4289 19.8856C26.6249 20.5644 26.7229 21.271 26.7229 22.0056C26.7229 22.6936 26.6343 23.3631 26.4569 24.0139C26.289 24.6648 26.0417 25.2831 25.715 25.8689C25.3977 26.4547 25.0058 26.994 24.5392 27.4868C24.0725 27.9795 23.5499 28.4073 22.9713 28.7699L25.1971 34H20.9276L19.1777 29.9693L14.6842 29.9972V34ZM14.6842 18.0028V26.0084H18.7018C19.2524 26.0084 19.7703 25.9061 20.2556 25.7015C20.7409 25.4877 21.1655 25.1994 21.5295 24.8368C21.8934 24.4742 22.1781 24.0511 22.3834 23.5676C22.598 23.0748 22.7054 22.5542 22.7054 22.0056C22.7054 21.457 22.598 20.941 22.3834 20.4575C22.1781 19.9647 21.8934 19.537 21.5295 19.1743C21.1655 18.8117 20.7409 18.5281 20.2556 18.3236C19.7703 18.1097 19.2524 18.0028 18.7018 18.0028H14.6842Z" fill="white"/>
<path d="M32.8939 16.5463C32.2665 15.6087 30.9951 15.3554 30.0541 15.9804C29.1131 16.6055 28.8588 17.8722 29.4862 18.8097L32.8245 23.7988L29.4862 28.7878C28.8588 29.7253 29.1131 30.9921 30.0541 31.6171C30.9951 32.2421 32.2665 31.9888 32.8939 31.0512L36.9894 24.9305C37.448 24.2452 37.448 23.3524 36.9894 22.667L32.8939 16.5463Z" fill="white"/>
</svg>
