<svg width="172" height="34" viewBox="0 0 172 34" fill="none" xmlns="http://www.w3.org/2000/svg">
<path d="M129.883 0.5H139.603C143.899 0.5 148.019 2.20215 151.057 5.23249C154.095 8.26243 155.801 12.3724 155.801 16.6576C155.801 20.9428 154.095 25.0528 151.057 28.0827C148.019 31.113 143.899 32.8152 139.603 32.8152H129.883V26.3522H139.603C144.97 26.3522 149.322 22.0118 149.322 16.6576C149.322 11.3034 144.97 6.96304 139.603 6.96304H129.883V0.5Z" fill="#131D35"/>
<path fill-rule="evenodd" clip-rule="evenodd" d="M91.5754 21.4607C91.974 20.0616 92.1733 18.611 92.1733 17.1089C92.1733 15.6067 91.974 14.1561 91.5754 12.7571C91.1915 11.358 90.6452 10.0547 89.9365 8.84704C89.2278 7.63943 88.3715 6.5349 87.3675 5.53347C86.3635 4.53204 85.2562 3.67787 84.0455 2.97098C82.8349 2.26408 81.5282 1.71918 80.1256 1.33628C78.723 0.938654 77.2687 0.739839 75.7627 0.739839C74.2567 0.739839 72.8025 0.938654 71.3998 1.33628C70.012 1.71918 68.7053 2.26408 67.4799 2.97098C66.2692 3.67787 65.1619 4.53204 64.1579 5.53347C63.1539 6.5349 62.2902 7.63943 61.5667 8.84704C60.858 10.0547 60.3044 11.358 59.9057 12.7571C59.5219 14.1561 59.3299 15.6067 59.3299 17.1089C59.3299 18.611 59.5219 20.0616 59.9057 21.4607C60.3044 22.845 60.858 24.1484 61.5667 25.3707C62.2902 26.5783 63.1539 27.6828 64.1579 28.6843C65.1619 29.6857 66.2692 30.5472 67.4799 31.2689C68.7053 31.9758 70.012 32.5207 71.3998 32.9036C72.8025 33.3012 74.2567 33.5 75.7627 33.5C77.2687 33.5 78.723 33.3012 80.1256 32.9036C81.5282 32.5207 82.8349 31.9758 84.0455 31.2689C85.2562 30.5472 86.3635 29.6857 87.3675 28.6843C88.3715 27.6828 89.2278 26.5783 89.9365 25.3707C90.6452 24.1484 91.1915 22.845 91.5754 21.4607ZM85.0643 13.1989C85.5958 14.4212 85.8616 15.7245 85.8616 17.1089C85.8616 18.4932 85.5958 19.7965 85.0643 21.0189C84.5328 22.2265 83.8093 23.2868 82.8939 24.1999C81.9933 25.113 80.9229 25.8346 79.6827 26.3648C78.4572 26.895 77.1506 27.16 75.7627 27.16C74.3601 27.16 73.0461 26.895 71.8206 26.3648C70.5952 25.8346 69.5247 25.113 68.6094 24.1999C67.694 23.2868 66.9705 22.2265 66.439 21.0189C65.9075 19.7965 65.6417 18.4932 65.6417 17.1089C65.6417 15.7245 65.9075 14.4212 66.439 13.1989C66.9705 11.9618 67.694 10.8941 68.6094 9.99574C69.5247 9.08267 70.5952 8.36105 71.8206 7.83088C73.0461 7.30071 74.3601 7.03562 75.7627 7.03562C77.1506 7.03562 78.4572 7.30071 79.6827 7.83088C80.9229 8.36105 81.9933 9.08267 82.8939 9.99574C83.8093 10.8941 84.5328 11.9618 85.0643 13.1989Z" fill="#131D35"/>
<path fill-rule="evenodd" clip-rule="evenodd" d="M6.35607 32.8152H0V1.13747H12.7121C13.8785 1.13747 15.0006 1.2921 16.0784 1.60137C17.1562 1.89591 18.1602 2.32299 19.0904 2.88261C20.0353 3.42751 20.8916 4.09023 21.6594 4.87076C22.4419 5.63656 23.1063 6.49072 23.6526 7.43325C24.2136 8.37578 24.6418 9.38457 24.9371 10.4596C25.2471 11.5347 25.4022 12.654 25.4022 13.8174C25.4022 14.9072 25.2619 15.9675 24.9814 16.9984C24.7156 18.0293 24.3244 19.0087 23.8076 19.9365C23.3056 20.8643 22.6855 21.7184 21.9473 22.4989C21.2091 23.2795 20.3823 23.9569 19.4669 24.5313L22.9882 32.8152H16.2335L13.4651 26.431L6.35607 26.4752V32.8152ZM6.35607 7.47743V20.1574H12.7121C13.5833 20.1574 14.4027 19.9954 15.1704 19.6714C15.9382 19.3326 16.61 18.8761 17.1858 18.3018C17.7616 17.7274 18.2119 17.0573 18.5367 16.2915C18.8763 15.511 19.0461 14.6863 19.0461 13.8174C19.0461 12.9485 18.8763 12.1312 18.5367 11.3654C18.2119 10.5848 17.7616 9.90738 17.1858 9.33303C16.61 8.75868 15.9382 8.30951 15.1704 7.98551C14.4027 7.64679 13.5833 7.47743 12.7121 7.47743H6.35607Z" fill="#131D35"/>
<path d="M36.021 32.8152H29.665V1.13747H36.021V13.8174H48.711V1.13747H55.0671V32.8152H48.711V20.1574H36.021V32.8152Z" fill="#131D35"/>
<path fill-rule="evenodd" clip-rule="evenodd" d="M127.552 17.1089C127.552 18.611 127.353 20.0616 126.954 21.4607C126.57 22.845 126.024 24.1484 125.315 25.3707C124.607 26.5783 123.75 27.6828 122.746 28.6843C121.742 29.6857 120.635 30.5472 119.424 31.2689C118.214 31.9758 116.907 32.5207 115.504 32.9036C114.102 33.3012 112.647 33.5 111.142 33.5C109.636 33.5 108.181 33.3012 106.779 32.9036C105.391 32.5207 104.084 31.9758 102.859 31.2689C101.648 30.5472 100.541 29.6857 99.5367 28.6843C98.5327 27.6828 97.669 26.5783 96.9455 25.3707C96.2368 24.1484 95.6832 22.845 95.2845 21.4607C94.9007 20.0616 94.7087 18.611 94.7087 17.1089C94.7087 15.6067 94.9007 14.1561 95.2845 12.7571C95.6832 11.358 96.2368 10.0547 96.9455 8.84704C97.669 7.63943 98.5327 6.5349 99.5367 5.53347C100.541 4.53204 101.648 3.67787 102.859 2.97098C104.084 2.26408 105.391 1.71918 106.779 1.33628C108.181 0.938654 109.636 0.739839 111.142 0.739839C112.647 0.739839 114.102 0.938654 115.504 1.33628C116.907 1.71918 118.214 2.26408 119.424 2.97098C120.635 3.67787 121.742 4.53204 122.746 5.53347C123.75 6.5349 124.607 7.63943 125.315 8.84704C126.024 10.0547 126.57 11.358 126.954 12.7571C127.353 14.1561 127.552 15.6067 127.552 17.1089ZM121.24 17.1089C121.24 15.7245 120.975 14.4212 120.443 13.1989C119.912 11.9618 119.188 10.8941 118.273 9.99574C117.372 9.08267 116.302 8.36105 115.061 7.83088C113.836 7.30071 112.529 7.03562 111.142 7.03562C109.739 7.03562 108.425 7.30071 107.199 7.83088C105.974 8.36105 104.904 9.08267 103.988 9.99574C103.073 10.8941 102.349 11.9618 101.818 13.1989C101.286 14.4212 101.021 15.7245 101.021 17.1089C101.021 18.4932 101.286 19.7965 101.818 21.0189C102.349 22.2265 103.073 23.2868 103.988 24.1999C104.904 25.113 105.974 25.8346 107.199 26.3648C108.425 26.895 109.739 27.16 111.142 27.16C112.529 27.16 113.836 26.895 115.061 26.3648C116.302 25.8346 117.372 25.113 118.273 24.1999C119.188 23.2868 119.912 22.2265 120.443 21.0189C120.975 19.7965 121.24 18.4932 121.24 17.1089Z" fill="#131D35"/>
<path d="M164.976 5.17051C163.984 3.68554 161.972 3.28427 160.484 4.27425C158.995 5.26423 158.593 7.27059 159.585 8.75556L164.867 16.6576L159.585 24.5596C158.593 26.0446 158.995 28.051 160.484 29.0409C161.972 30.0309 163.984 29.6297 164.976 28.1447L171.456 18.4501C172.181 17.3647 172.181 15.9505 171.456 14.8651L164.976 5.17051Z" fill="#131D35"/>
</svg>
