<svg width="234" height="48" viewBox="0 0 234 48" fill="none" xmlns="http://www.w3.org/2000/svg">
<rect x="0.0117188" y="0.115234" width="233.976" height="47.6235" rx="23.8118" fill="#6366F2"/>
<rect x="8.29407" y="8.39771" width="31.0588" height="31.0588" rx="15.5294" fill="white"/>
<path d="M19.4473 19.458V28.396C19.4473 29.0776 20.1979 29.4917 20.7759 29.1207L27.7986 24.6517C28.3335 24.3152 28.3335 23.5387 27.7986 23.1936L20.7759 18.7332C20.1979 18.3623 19.4473 18.7764 19.4473 19.458Z" fill="#6366F2"/>
<rect x="53.847" y="20.3035" width="3.10588" height="7.24706" rx="1.55294" fill="white"/>
<rect x="59.0236" y="15.127" width="3.10588" height="17.6" rx="1.55294" fill="white"/>
<rect x="64.2" y="16.6799" width="3.10588" height="14.4941" rx="1.55294" fill="white"/>
<rect x="69.3765" y="10.9858" width="3.10588" height="25.8824" rx="1.55294" fill="white"/>
<rect x="74.553" y="9.43286" width="3.10588" height="28.9882" rx="1.55294" fill="white"/>
<rect x="79.7294" y="19.2681" width="3.10588" height="9.31765" rx="1.55294" fill="white"/>
<rect x="84.9059" y="13.0564" width="3.10588" height="21.7412" rx="1.55294" fill="white"/>
<rect x="90.0823" y="20.3035" width="3.10588" height="7.24706" rx="1.55294" fill="white"/>
<rect x="95.2588" y="12.021" width="3.10588" height="23.8118" rx="1.55294" fill="white"/>
<rect x="100.435" y="18.2329" width="3.10588" height="11.3882" rx="1.55294" fill="white"/>
<rect x="105.612" y="14.6094" width="3.10588" height="18.6353" rx="1.55294" fill="white"/>
<rect x="110.788" y="9.43286" width="3.10588" height="28.9882" rx="1.55294" fill="white"/>
<rect x="115.965" y="9.95044" width="3.10588" height="27.9529" rx="1.55294" fill="white"/>
<rect x="121.141" y="22.374" width="3.10588" height="3.10588" rx="1.55294" fill="white"/>
<rect x="126.318" y="22.8916" width="3.10588" height="2.07059" rx="1.03529" fill="white"/>
<rect x="131.494" y="15.6445" width="3.10588" height="16.5647" rx="1.55294" fill="white"/>
<rect x="136.671" y="14.0918" width="3.10588" height="19.6706" rx="1.55294" fill="#828DF8"/>
<rect x="141.847" y="13.574" width="3.10588" height="20.7059" rx="1.55294" fill="#828DF8"/>
<rect x="147.024" y="17.7153" width="3.10588" height="12.4235" rx="1.55294" fill="#828DF8"/>
<rect x="152.2" y="19.2681" width="3.10588" height="9.31765" rx="1.55294" fill="#828DF8"/>
<rect x="157.376" y="13.574" width="3.10588" height="20.7059" rx="1.55294" fill="#828DF8"/>
<rect x="162.553" y="8.91528" width="3.10588" height="30.0235" rx="1.55294" fill="#828DF8"/>
<rect x="167.729" y="9.95044" width="3.10588" height="27.9529" rx="1.55294" fill="#828DF8"/>
<rect x="172.906" y="8.91528" width="3.10588" height="30.0235" rx="1.55294" fill="#828DF8"/>
<rect x="178.082" y="9.43286" width="3.10588" height="28.9882" rx="1.55294" fill="#828DF8"/>
<rect x="183.259" y="10.4683" width="3.10588" height="26.9176" rx="1.55294" fill="#828DF8"/>
<rect x="188.435" y="17.1975" width="3.10588" height="13.4588" rx="1.55294" fill="#828DF8"/>
<rect x="193.612" y="22.374" width="3.10588" height="3.10588" rx="1.55294" fill="#828DF8"/>
<rect x="198.788" y="20.3035" width="3.10588" height="7.24706" rx="1.55294" fill="#828DF8"/>
<rect x="203.965" y="16.1624" width="3.10588" height="15.5294" rx="1.55294" fill="#828DF8"/>
<rect x="209.141" y="15.6445" width="3.10588" height="16.5647" rx="1.55294" fill="#828DF8"/>
<rect x="214.318" y="17.1975" width="3.10588" height="13.4588" rx="1.55294" fill="#828DF8"/>
</svg>
