<svg width="158" height="30" viewBox="0 0 158 30" fill="none" xmlns="http://www.w3.org/2000/svg">
<rect y="11.5" width="3" height="7" rx="1.5" fill="#3479E8"/>
<rect x="5" y="6.5" width="3" height="17" rx="1.5" fill="#3479E8"/>
<rect x="10" y="8" width="3" height="14" rx="1.5" fill="#3479E8"/>
<rect x="15" y="2.5" width="3" height="25" rx="1.5" fill="#3479E8"/>
<rect x="20" y="1" width="3" height="28" rx="1.5" fill="#3479E8"/>
<rect x="25" y="10.5" width="3" height="9" rx="1.5" fill="#3479E8"/>
<rect x="30" y="4.5" width="3" height="21" rx="1.5" fill="#3479E8"/>
<rect x="35" y="11.5" width="3" height="7" rx="1.5" fill="#3479E8"/>
<rect x="40" y="3.5" width="3" height="23" rx="1.5" fill="#3479E8"/>
<rect x="45" y="9.5" width="3" height="11" rx="1.5" fill="#3479E8"/>
<rect x="50" y="6" width="3" height="18" rx="1.5" fill="#3479E8"/>
<rect x="55" y="1" width="3" height="28" rx="1.5" fill="#3479E8"/>
<rect x="60" y="1.5" width="3" height="27" rx="1.5" fill="#3479E8"/>
<rect x="65" y="13.5" width="3" height="3" rx="1.5" fill="#3479E8"/>
<rect x="70" y="14" width="3" height="2" rx="1" fill="#3479E8"/>
<rect x="75" y="7" width="3" height="16" rx="1.5" fill="#3479E8"/>
<rect x="80" y="5.5" width="3" height="19" rx="1.5" fill="#91C3FC"/>
<rect x="85" y="5" width="3" height="20" rx="1.5" fill="#91C3FC"/>
<rect x="90" y="9" width="3" height="12" rx="1.5" fill="#91C3FC"/>
<rect x="95" y="10.5" width="3" height="9" rx="1.5" fill="#91C3FC"/>
<rect x="100" y="5" width="3" height="20" rx="1.5" fill="#91C3FC"/>
<rect x="105" y="0.5" width="3" height="29" rx="1.5" fill="#91C3FC"/>
<rect x="110" y="1.5" width="3" height="27" rx="1.5" fill="#91C3FC"/>
<rect x="115" y="0.5" width="3" height="29" rx="1.5" fill="#91C3FC"/>
<rect x="120" y="1" width="3" height="28" rx="1.5" fill="#91C3FC"/>
<rect x="125" y="2" width="3" height="26" rx="1.5" fill="#91C3FC"/>
<rect x="130" y="8.5" width="3" height="13" rx="1.5" fill="#91C3FC"/>
<rect x="135" y="13.5" width="3" height="3" rx="1.5" fill="#91C3FC"/>
<rect x="140" y="11.5" width="3" height="7" rx="1.5" fill="#91C3FC"/>
<rect x="145" y="7.5" width="3" height="15" rx="1.5" fill="#91C3FC"/>
<rect x="150" y="7" width="3" height="16" rx="1.5" fill="#91C3FC"/>
<rect x="155" y="8.5" width="3" height="13" rx="1.5" fill="#91C3FC"/>
</svg>
